<?xml version="1.0" encoding="utf-8"?>
<svg version="1.1" id="Kompass" xmlns="http://www.w3.org/2000/svg" xmlns:xlink="http://www.w3.org/1999/xlink"
 x="0px" y="0px" width="800px" height="800px" viewBox="0 0 800 800" enable-background="new 0 0 800 800" xml:space="preserve">
<symbol id="elm" viewBox="-300.5 -300.5 601 601">
<polygon fill="#FBFBFF" stroke="#333" points="0,300 30,30 300,0 30,-30 0,-300 -30,-30 -300,0 -30,30 "/>
<polygon fill="#999"  stroke="#333" points="0,300 30,30 0,0 30,-30 0,-300 "/>
<polygon fill="#999"  stroke="#333" points="300,0 30,-30 0,0 -30,-30 -300,0 "/>
<line fill="none"  stroke="#333" x1="-30" y1="30" x2="0" y2="0"/>
</symbol>
<use xlink:href="#elm" width="601" height="601" x="-300.5" y="-300.5" transform="matrix(0.7179 -0.2974 -0.2974 -0.7179 400 400)" overflow="visible"/>
<use xlink:href="#elm" width="601" height="601" x="-300.5" y="-300.5" transform="matrix(0.7179 0.2974 -0.2974 0.7179 400 400)" overflow="visible"/>
<use xlink:href="#elm" width="601" height="601" x="-300.5" y="-300.5" transform="matrix(0.6267 0.6267 0.6267 -0.6267 400 400)" overflow="visible"/>
<use xlink:href="#elm" width="601" height="601" x="-300.5" y="-300.5" transform="matrix(1 0 0 -1 400 400)" overflow="visible"/>
<g id="text">
<text transform="matrix(1 0 0 1 378.33 72.44)" font-size="60">N</text>
<text transform="matrix(1 0 0 1 718.66 414.44)" font-size="60">O</text>
<text transform="matrix(1 0 0 1 379.99 756.44)" font-size="60">S</text>
<text transform="matrix(1 0 0 1 29.68 414.44)" font-size="60">W</text>
<text transform="matrix(1 0 0 1 132.01 192.11)" font-size="40">NW</text>
<text transform="matrix(1 0 0 1 602.50 192.11)" font-size="40">NO</text>
<text transform="matrix(1 0 0 1 133.17 628.11)" font-size="40">SW</text>
<text transform="matrix(1 0 0 1 602.65 628.11)" font-size="40">SO</text>
<text transform="matrix(1 0 0 1 247.85 134.44)" font-size="30">NNW</text>
<text transform="matrix(1 0 0 1 490.98 134.44)" font-size="30">NNO</text>
<text transform="matrix(1 0 0 1 104.67 293.43)" font-size="30">WNW</text>
<text transform="matrix(1 0 0 1 630.21 293.43)" font-size="30">ONO</text>
<text transform="matrix(1 0 0 1 105.52 513.70)" font-size="30">WSW</text>
<text transform="matrix(1 0 0 1 630.21 513.70)" font-size="30">OSO</text>
<text transform="matrix(1 0 0 1 249.54 672.40)" font-size="30">SSW</text>
<text transform="matrix(1 0 0 1 492.68 672.40)" font-size="30">SSO</text>
</g>
</svg>
