<?xml version="1.0" encoding="UTF-8" standalone="no"?>
<svg version="1.1" width="1120" height="1000" xmlns="http://www.w3.org/2000/svg">
<title>Расцветка Html</title>
<g stroke="lightgray" stroke-width="1px">
<rect height="1000" width="1120" fill="snow" x="0" y="0" />
<rect height="20" width="23" fill="aliceblue" x="6" y="10" />
<rect height="20" width="23" fill="antiquewhite" x="6" y="30" />
<rect height="20" width="23" fill="aqua" x="6" y="50" />
<rect height="20" width="23" fill="aquamarine" x="6" y="70" />
<rect height="20" width="23" fill="azure" x="6" y="90" />
<rect height="20" width="23" fill="beige" x="6" y="110" />
<rect height="20" width="23" fill="bisque" x="6" y="130" />
<rect height="20" width="23" fill="black" x="6" y="150" />
<rect height="20" width="23" fill="blanchedalmond" x="6" y="170" />
<rect height="20" width="23" fill="blue" x="6" y="190" />
<rect height="20" width="23" fill="blueviolet" x="6" y="210" />
<rect height="20" width="23" fill="brown" x="6" y="230" />
<rect height="20" width="23" fill="burlywood" x="6" y="250" />
<rect height="20" width="23" fill="cadetblue" x="6" y="270" />
<rect height="20" width="23" fill="chartreuse" x="6" y="290" />
<rect height="20" width="23" fill="chocolate" x="6" y="310" />
<rect height="20" width="23" fill="coral" x="6" y="330" />
<rect height="20" width="23" fill="cornflowerblue" x="6" y="350" />
<rect height="20" width="23" fill="cornsilk" x="6" y="370" />
<rect height="20" width="23" fill="crimson" x="6" y="390" />
<rect height="20" width="23" fill="cyan" x="6" y="410" />
<rect height="20" width="23" fill="darkblue" x="6" y="430" />
<rect height="20" width="23" fill="darkcyan" x="6" y="450" />
<rect height="20" width="23" fill="darkgoldenrod" x="6" y="470" />
<rect height="20" width="23" fill="darkgray" x="6" y="490" />
<rect height="20" width="23" fill="darkgreen" x="6" y="510" />
<rect height="20" width="23" fill="darkgrey" x="6" y="530" />
<rect height="20" width="23" fill="darkkhaki" x="6" y="550" />
<rect height="20" width="23" fill="darkmagenta" x="6" y="570" />
<rect height="20" width="23" fill="darkolivegreen" x="6" y="590" />
<rect height="20" width="23" fill="darkorange" x="6" y="610" />
<rect height="20" width="23" fill="darkorchid" x="6" y="630" />
<rect height="20" width="23" fill="darkred" x="6" y="650" />
<rect height="20" width="23" fill="darksalmon" x="6" y="670" />
<rect height="20" width="23" fill="darkseagreen" x="6" y="690" />
<rect height="20" width="23" fill="darkslateblue" x="6" y="710" />
<rect height="20" width="23" fill="darkslategray" x="6" y="730" />
<rect height="20" width="23" fill="darkslategrey" x="6" y="750" />
<rect height="20" width="23" fill="darkturquoise" x="6" y="770" />
<rect height="20" width="23" fill="darkviolet" x="6" y="790" />
<rect height="20" width="23" fill="deeppink" x="6" y="810" />
<rect height="20" width="23" fill="deepskyblue" x="6" y="830" />
<rect height="20" width="23" fill="dimgray" x="6" y="850" />
<rect height="20" width="23" fill="dimgrey" x="6" y="870" />
<rect height="20" width="23" fill="dodgerblue" x="6" y="890" />
<rect height="20" width="23" fill="firebrick" x="6" y="910" />
<rect height="20" width="23" fill="floralwhite" x="6" y="930" />
<rect height="20" width="23" fill="forestgreen" x="6" y="950" />
<rect height="20" width="23" fill="fuchsia" x="6" y="970" />
<rect height="20" width="23" fill="gainsboro" x="386" y="10" />
<rect height="20" width="23" fill="ghostwhite" x="386" y="30" />
<rect height="20" width="23" fill="gold" x="386" y="50" />
<rect height="20" width="23" fill="goldenrod" x="386" y="70" />
<rect height="20" width="23" fill="gray" x="386" y="90" />
<rect height="20" width="23" fill="grey" x="386" y="110" />
<rect height="20" width="23" fill="green" x="386" y="130" />
<rect height="20" width="23" fill="greenyellow" x="386" y="150" />
<rect height="20" width="23" fill="honeydew" x="386" y="170" />
<rect height="20" width="23" fill="hotpink" x="386" y="190" />
<rect height="20" width="23" fill="indianred" x="386" y="210" />
<rect height="20" width="23" fill="indigo" x="386" y="230" />
<rect height="20" width="23" fill="ivory" x="386" y="250" />
<rect height="20" width="23" fill="khaki" x="386" y="270" />
<rect height="20" width="23" fill="lavender" x="386" y="290" />
<rect height="20" width="23" fill="lavenderblush" x="386" y="310" />
<rect height="20" width="23" fill="lawngreen" x="386" y="330" />
<rect height="20" width="23" fill="lemonchiffon" x="386" y="350" />
<rect height="20" width="23" fill="lightblue" x="386" y="370" />
<rect height="20" width="23" fill="lightcoral" x="386" y="390" />
<rect height="20" width="23" fill="lightcyan" x="386" y="410" />
<rect height="20" width="23" fill="lightgoldenrodyellow" x="386" y="430" />
<rect height="20" width="23" fill="lightgray" x="386" y="450" />
<rect height="20" width="23" fill="lightgreen" x="386" y="470" />
<rect height="20" width="23" fill="lightgrey" x="386" y="490" />
<rect height="20" width="23" fill="lightpink" x="386" y="510" />
<rect height="20" width="23" fill="lightsalmon" x="386" y="530" />
<rect height="20" width="23" fill="lightseagreen" x="386" y="550" />
<rect height="20" width="23" fill="lightskyblue" x="386" y="570" />
<rect height="20" width="23" fill="lightslategray" x="386" y="590" />
<rect height="20" width="23" fill="lightslategrey" x="386" y="610" />
<rect height="20" width="23" fill="lightsteelblue" x="386" y="630" />
<rect height="20" width="23" fill="lightyellow" x="386" y="650" />
<rect height="20" width="23" fill="lime" x="386" y="670" />
<rect height="20" width="23" fill="limegreen" x="386" y="690" />
<rect height="20" width="23" fill="linen" x="386" y="710" />
<rect height="20" width="23" fill="magenta" x="386" y="730" />
<rect height="20" width="23" fill="maroon" x="386" y="750" />
<rect height="20" width="23" fill="mediumaquamarine" x="386" y="770" />
<rect height="20" width="23" fill="mediumblue" x="386" y="790" />
<rect height="20" width="23" fill="mediumorchid" x="386" y="810" />
<rect height="20" width="23" fill="mediumpurple" x="386" y="830" />
<rect height="20" width="23" fill="mediumseagreen" x="386" y="850" />
<rect height="20" width="23" fill="mediumslateblue" x="386" y="870" />
<rect height="20" width="23" fill="mediumspringgreen" x="386" y="890" />
<rect height="20" width="23" fill="mediumturquoise" x="386" y="910" />
<rect height="20" width="23" fill="mediumvioletred" x="386" y="930" />
<rect height="20" width="23" fill="midnightblue" x="386" y="950" />
<rect height="20" width="23" fill="mintcream" x="386" y="970" />
<rect height="20" width="23" fill="mistyrose" x="766" y="10" />
<rect height="20" width="23" fill="moccasin" x="766" y="30" />
<rect height="20" width="23" fill="navajowhite" x="766" y="50" />
<rect height="20" width="23" fill="navy" x="766" y="70" />
<rect height="20" width="23" fill="oldlace" x="766" y="90" />
<rect height="20" width="23" fill="olive" x="766" y="110" />
<rect height="20" width="23" fill="olivedrab" x="766" y="130" />
<rect height="20" width="23" fill="orange" x="766" y="150" />
<rect height="20" width="23" fill="orangered" x="766" y="170" />
<rect height="20" width="23" fill="orchid" x="766" y="190" />
<rect height="20" width="23" fill="palegoldenrod" x="766" y="210" />
<rect height="20" width="23" fill="palegreen" x="766" y="230" />
<rect height="20" width="23" fill="paleturquoise" x="766" y="250" />
<rect height="20" width="23" fill="palevioletred" x="766" y="270" />
<rect height="20" width="23" fill="papayawhip" x="766" y="290" />
<rect height="20" width="23" fill="peachpuff" x="766" y="310" />
<rect height="20" width="23" fill="peru" x="766" y="330" />
<rect height="20" width="23" fill="pink" x="766" y="350" />
<rect height="20" width="23" fill="plum" x="766" y="370" />
<rect height="20" width="23" fill="powderblue" x="766" y="390" />
<rect height="20" width="23" fill="purple" x="766" y="410" />
<rect height="20" width="23" fill="red" x="766" y="430" />
<rect height="20" width="23" fill="rosybrown" x="766" y="450" />
<rect height="20" width="23" fill="royalblue" x="766" y="470" />
<rect height="20" width="23" fill="saddlebrown" x="766" y="490" />
<rect height="20" width="23" fill="salmon" x="766" y="510" />
<rect height="20" width="23" fill="sandybrown" x="766" y="530" />
<rect height="20" width="23" fill="seagreen" x="766" y="550" />
<rect height="20" width="23" fill="seashell" x="766" y="570" />
<rect height="20" width="23" fill="sienna" x="766" y="590" />
<rect height="20" width="23" fill="silver" x="766" y="610" />
<rect height="20" width="23" fill="skyblue" x="766" y="630" />
<rect height="20" width="23" fill="slateblue" x="766" y="650" />
<rect height="20" width="23" fill="slategray" x="766" y="670" />
<rect height="20" width="23" fill="slategrey" x="766" y="690" />
<rect height="20" width="23" fill="snow" x="766" y="710" />
<rect height="20" width="23" fill="springgreen" x="766" y="730" />
<rect height="20" width="23" fill="steelblue" x="766" y="750" />
<rect height="20" width="23" fill="tan" x="766" y="770" />
<rect height="20" width="23" fill="teal" x="766" y="790" />
<rect height="20" width="23" fill="thistle" x="766" y="810" />
<rect height="20" width="23" fill="tomato" x="766" y="830" />
<rect height="20" width="23" fill="turquoise" x="766" y="850" />
<rect height="20" width="23" fill="violet" x="766" y="870" />
<rect height="20" width="23" fill="wheat" x="766" y="890" />
<rect height="20" width="23" fill="white" x="766" y="910" />
<rect height="20" width="23" fill="whitesmoke" x="766" y="930" />
<rect height="20" width="23" fill="yellow" x="766" y="950" />
<rect height="20" width="23" fill="yellowgreen" x="766" y="970" />
</g>
<g fill="navy" font-size="18px" font-family="monospace">
<text x="30" y="22">#F0F8FF aliceblue</text>
<text x="30" y="42">#FAEBD7 antiquewhite</text>
<text x="30" y="62">#00FFFF aqua</text>
<text x="30" y="82">#7FFFD4 aquamarine</text>
<text x="30" y="102">#F0FFFF azure</text>
<text x="30" y="122">#F5F5DC beige</text>
<text x="30" y="142">#FFE4C4 bisque</text>
<text x="30" y="162">#000000 black</text>
<text x="30" y="182">#FFEBCD blanchedalmond</text>
<text x="30" y="202">#0000FF blue</text>
<text x="30" y="222">#8A2BE2 blueviolet</text>
<text x="30" y="242">#A52A2A brown</text>
<text x="30" y="262">#DEB887 burlywood</text>
<text x="30" y="282">#5F9EA0 cadetblue</text>
<text x="30" y="302">#7FFF00 chartreuse</text>
<text x="30" y="322">#D2691E chocolate</text>
<text x="30" y="342">#FF7F50 coral</text>
<text x="30" y="362">#6495ED cornflowerblue</text>
<text x="30" y="382">#FFF8DC cornsilk</text>
<text x="30" y="402">#DC143C crimson</text>
<text x="30" y="422">#00FFFF cyan</text>
<text x="30" y="442">#00008B darkblue</text>
<text x="30" y="462">#008B8B darkcyan</text>
<text x="30" y="482">#B8860B darkgoldenrod</text>
<text x="30" y="502">#A9A9A9 darkgray</text>
<text x="30" y="522">#006400 darkgreen</text>
<text x="30" y="542">#A9A9A9 darkgrey</text>
<text x="30" y="562">#BDB76B darkkhaki</text>
<text x="30" y="582">#8B008B darkmagenta</text>
<text x="30" y="602">#556B2F darkolivegreen</text>
<text x="30" y="622">#FF8C00 darkorange</text>
<text x="30" y="642">#9932CC darkorchid</text>
<text x="30" y="662">#8B0000 darkred</text>
<text x="30" y="682">#E9967A darksalmon</text>
<text x="30" y="702">#8FBC8F darkseagreen</text>
<text x="30" y="722">#483D8B darkslateblue</text>
<text x="30" y="742">#2F4F4F darkslategray</text>
<text x="30" y="762">#2F4F4F darkslategrey</text>
<text x="30" y="782">#00CED1 darkturquoise</text>
<text x="30" y="802">#9400D3 darkviolet</text>
<text x="30" y="822">#FF1493 deeppink</text>
<text x="30" y="842">#00BFFF deepskyblue</text>
<text x="30" y="862">#696969 dimgray</text>
<text x="30" y="882">#696969 dimgrey</text>
<text x="30" y="902">#1E90FF dodgerblue</text>
<text x="30" y="922">#B22222 firebrick</text>
<text x="30" y="942">#FFFAF0 floralwhite</text>
<text x="30" y="962">#228B22 forestgreen</text>
<text x="30" y="982">#FF00FF fuchsia</text>
<text x="410" y="22">#DCDCDC gainsboro</text>
<text x="410" y="42">#F8F8FF ghostwhite</text>
<text x="410" y="62">#FFD700 gold</text>
<text x="410" y="82">#DAA520 goldenrod</text>
<text x="410" y="102">#808080 gray</text>
<text x="410" y="122">#808080 grey</text>
<text x="410" y="142">#008000 green</text>
<text x="410" y="162">#ADFF2F greenyellow</text>
<text x="410" y="182">#F0FFF0 honeydew</text>
<text x="410" y="202">#FF69B4 hotpink</text>
<text x="410" y="222">#CD5C5C indianred</text>
<text x="410" y="242">#4B0082 indigo</text>
<text x="410" y="262">#FFFFF0 ivory</text>
<text x="410" y="282">#F0E68C khaki</text>
<text x="410" y="302">#E6E6FA lavender</text>
<text x="410" y="322">#FFF0F5 lavenderblush</text>
<text x="410" y="342">#7CFC00 lawngreen</text>
<text x="410" y="362">#FFFACD lemonchiffon</text>
<text x="410" y="382">#ADD8E6 lightblue</text>
<text x="410" y="402">#F08080 lightcoral</text>
<text x="410" y="422">#E0FFFF lightcyan</text>
<text x="410" y="442">#FAFAD2 lightgoldenrodyellow</text>
<text x="410" y="462">#D3D3D3 lightgray</text>
<text x="410" y="482">#90EE90 lightgreen</text>
<text x="410" y="502">#D3D3D3 lightgrey</text>
<text x="410" y="522">#FFB6C1 lightpink</text>
<text x="410" y="542">#FFA07A lightsalmon</text>
<text x="410" y="562">#20B2AA lightseagreen</text>
<text x="410" y="582">#87CEFA lightskyblue</text>
<text x="410" y="602">#778899 lightslategray</text>
<text x="410" y="622">#778899 lightslategrey</text>
<text x="410" y="642">#B0C4DE lightsteelblue</text>
<text x="410" y="662">#FFFFE0 lightyellow</text>
<text x="410" y="682">#00FF00 lime</text>
<text x="410" y="702">#32CD32 limegreen</text>
<text x="410" y="722">#FAF0E6 linen</text>
<text x="410" y="742">#FF00FF magenta</text>
<text x="410" y="762">#800000 maroon</text>
<text x="410" y="782">#66CDAA mediumaquamarine</text>
<text x="410" y="802">#0000CD mediumblue</text>
<text x="410" y="822">#BA55D3 mediumorchid</text>
<text x="410" y="842">#9370DB mediumpurple</text>
<text x="410" y="862">#3CB371 mediumseagreen</text>
<text x="410" y="882">#7B68EE mediumslateblue</text>
<text x="410" y="902">#00FA9A mediumspringgreen</text>
<text x="410" y="922">#48D1CC mediumturquoise</text>
<text x="410" y="942">#C71585 mediumvioletred</text>
<text x="410" y="962">#191970 midnightblue</text>
<text x="410" y="982">#F5FFFA mintcream</text>
<text x="790" y="22">#FFE4E1 mistyrose</text>
<text x="790" y="42">#FFE4B5 moccasin</text>
<text x="790" y="62">#FFDEAD navajowhite</text>
<text x="790" y="82">#000080 navy</text>
<text x="790" y="102">#FDF5E6 oldlace</text>
<text x="790" y="122">#808000 olive</text>
<text x="790" y="142">#6B8E23 olivedrab</text>
<text x="790" y="162">#FFA500 orange</text>
<text x="790" y="182">#FF4500 orangered</text>
<text x="790" y="202">#DA70D6 orchid</text>
<text x="790" y="222">#EEE8AA palegoldenrod</text>
<text x="790" y="242">#98FB98 palegreen</text>
<text x="790" y="262">#AFEEEE paleturquoise</text>
<text x="790" y="282">#DB7093 palevioletred</text>
<text x="790" y="302">#FFEFD5 papayawhip</text>
<text x="790" y="322">#FFDAB9 peachpuff</text>
<text x="790" y="342">#CD853F peru</text>
<text x="790" y="362">#FFC0CB pink</text>
<text x="790" y="382">#DDA0DD plum</text>
<text x="790" y="402">#B0E0E6 powderblue</text>
<text x="790" y="422">#800080 purple</text>
<text x="790" y="442">#FF0000 red</text>
<text x="790" y="462">#BC8F8F rosybrown</text>
<text x="790" y="482">#4169E1 royalblue</text>
<text x="790" y="502">#8B4513 saddlebrown</text>
<text x="790" y="522">#FA8072 salmon</text>
<text x="790" y="542">#F4A460 sandybrown</text>
<text x="790" y="562">#2E8B57 seagreen</text>
<text x="790" y="582">#2E8B57 seashell</text>
<text x="790" y="602">#A0522D sienna</text>
<text x="790" y="622">#C0C0C0 silver</text>
<text x="790" y="642">#87CEEB skyblue</text>
<text x="790" y="662">#6A5ACD slateblue</text>
<text x="790" y="682">#708090 slategray</text>
<text x="790" y="702">#708090 slategrey</text>
<text x="790" y="722">#FFFAFA snow</text>
<text x="790" y="742">#00FF7F springgreen</text>
<text x="790" y="762">#4682B4 steelblue</text>
<text x="790" y="782">#D2B48C tan</text>
<text x="790" y="802">#008080 teal</text>
<text x="790" y="822">#D8BFD8 thistle</text>
<text x="790" y="842">#FF6347 tomato</text>
<text x="790" y="862">#40E0D0 turquoise</text>
<text x="790" y="882">#EE82EE violet</text>
<text x="790" y="902">#F5DEB3 wheat</text>
<text x="790" y="922">#FFFFFF white</text>
<text x="790" y="942">#F5F5F5 whitesmoke</text>
<text x="790" y="962">#FFFF00 yellow</text>
<text x="790" y="982">#9ACD32 yellowgreen</text>
</g>
</svg>
